# xmcd
#
# Track frame offsets:
#	150
#	15910
#	26270
#	35280
#	45763
#	58410
#	70215
#	79215
#	92588
#	107455
#	124910
#	134810
#	141215
#	150758
#	173518
#
# Disc length: 4440 seconds
#
# Revision: 0
# Processed by: cddbd v1.5.2PL0 Copyright (c) Steve Scherf et al.
# Submitted via: audiograbber 1.83.01
#
DISCID=b211560f
DTITLE=Gino and Geno - Bis - Cd 2
DYEAR=1900
DGENRE=Sertanejo
TTITLE0=Bebo pa Carai
TTITLE1=O Sorriso da Mulher Goiana
TTITLE2=Vou Gastar o Barão
TTITLE3=Seu Telegrama
TTITLE4=Roubando a Morena
TTITLE5=Blusa Amarela
TTITLE6=Camisa Molhada
TTITLE7=Quatro Tipos de Mulher
TTITLE8=Lágrimas na Cama
TTITLE9=Acidente de Amor
TTITLE10=Transporte da Boidada
TTITLE11=Alô, Meu Goiás
TTITLE12=Castigo
TTITLE13=Coração Apaixonado
TTITLE14=Data Track
EXTD=
EXTT0=
EXTT1=
EXTT2=
EXTT3=
EXTT4=
EXTT5=
EXTT6=
EXTT7=
EXTT8=
EXTT9=
EXTT10=
EXTT11=
EXTT12=
EXTT13=
EXTT14=
PLAYORDER=
